<?xml version="1.0" encoding="UTF-8" standalone="no"?>
<svg
   xmlns:dc="http://purl.org/dc/elements/1.1/"
   xmlns:cc="http://creativecommons.org/ns#"
   xmlns:rdf="http://www.w3.org/1999/02/22-rdf-syntax-ns#"
   xmlns:svg="http://www.w3.org/2000/svg"
   xmlns="http://www.w3.org/2000/svg"
   viewBox="0 0 195.84 31.879999"
   height="31.879999"
   width="195.84"
   xml:space="preserve"
   id="svg2"
   version="1.1"><metadata
     id="metadata8"><rdf:RDF><cc:Work
         rdf:about=""><dc:format>image/svg+xml</dc:format><dc:type
           rdf:resource="http://purl.org/dc/dcmitype/StillImage" /></cc:Work></rdf:RDF></metadata><defs
     id="defs6" /><g
     transform="matrix(1.3333333,0,0,-1.3333333,0,31.88)"
     id="g10"><g
       transform="scale(0.1)"
       id="g12"><path
         id="path14"
         style="fill:#ffffff;fill-opacity:1;fill-rule:nonzero;stroke:none"
         d="m 459.715,40.3086 h -14.391 v 8.8789 h 39.352 V 40.3086 H 470.273 V 1.14844 H 459.715 V 40.3086" /><path
         id="path16"
         style="fill:#ffffff;fill-opacity:1;fill-rule:nonzero;stroke:none"
         d="m 459.715,40.3086 h -14.391 v 8.8789 h 39.352 V 40.3086 H 470.273 V 1.14844 H 459.715 V 40.3086" /><path
         id="path18"
         style="fill:#ffffff;fill-opacity:1;fill-rule:nonzero;stroke:none"
         d="m 503.996,19.7227 h 12.449 l -6.058,17.6171 h -0.141 z m 1.012,29.4648 h 10.828 L 533.805,1.15234 H 522.828 L 519.195,11.8516 H 501.238 L 497.469,1.15234 h -10.692 l 18.231,48.03516" /><path
         id="path20"
         style="fill:#ffffff;fill-opacity:1;fill-rule:nonzero;stroke:none"
         d="m 503.996,19.7227 h 12.449 l -6.058,17.6171 h -0.141 z m 1.012,29.4648 h 10.828 L 533.805,1.15234 H 522.828 L 519.195,11.8516 H 501.238 L 497.469,1.15234 h -10.692 l 18.231,48.03516" /><path
         id="path22"
         style="fill:#ffffff;fill-opacity:1;fill-rule:nonzero;stroke:none"
         d="m 544.719,49.1836 h 10.554 V 29.2617 l 18.786,19.9219 h 13.179 L 568.469,30.2148 589.051,1.15625 H 575.797 L 561.34,22.7422 555.273,16.625 V 1.15625 H 544.719 V 49.1836" /><path
         id="path24"
         style="fill:#ffffff;fill-opacity:1;fill-rule:nonzero;stroke:none"
         d="m 544.719,49.1836 h 10.554 V 29.2617 l 18.786,19.9219 h 13.179 L 568.469,30.2148 589.051,1.15625 H 575.797 L 561.34,22.7422 555.273,16.625 V 1.15625 H 544.719 V 49.1836" /><path
         id="path26"
         style="fill:#ffffff;fill-opacity:1;fill-rule:nonzero;stroke:none"
         d="m 600.035,49.1836 h 10.563 V 29.2617 l 18.781,19.9219 h 13.176 L 623.785,30.2148 644.367,1.15625 H 631.113 L 616.656,22.7422 610.598,16.625 V 1.15625 H 600.035 V 49.1836" /><path
         id="path28"
         style="fill:#ffffff;fill-opacity:1;fill-rule:nonzero;stroke:none"
         d="m 600.035,49.1836 h 10.563 V 29.2617 l 18.781,19.9219 h 13.176 L 623.785,30.2148 644.367,1.15625 H 631.113 L 616.656,22.7422 610.598,16.625 V 1.15625 H 600.035 V 49.1836" /><path
         id="path30"
         style="fill:#ffffff;fill-opacity:1;fill-rule:nonzero;stroke:none"
         d="m 655.352,49.1836 h 35.933 V 40.3047 H 665.914 V 30.0156 h 23.281 v -8.207 H 665.914 V 10.0352 h 25.899 V 1.15625 H 655.352 V 49.1836" /><path
         id="path32"
         style="fill:#ffffff;fill-opacity:1;fill-rule:nonzero;stroke:none"
         d="m 655.352,49.1836 h 35.933 V 40.3047 H 665.914 V 30.0156 h 23.281 v -8.207 H 665.914 V 10.0352 h 25.899 V 1.15625 H 655.352 V 49.1836" /><path
         id="path34"
         style="fill:#ffffff;fill-opacity:1;fill-rule:nonzero;stroke:none"
         d="m 705.633,49.1836 h 10.555 V 1.15625 H 705.633 V 49.1836" /><path
         id="path36"
         style="fill:#ffffff;fill-opacity:1;fill-rule:nonzero;stroke:none"
         d="m 705.633,49.1875 h 10.555 V 1.15625 H 705.633 V 49.1875" /><path
         id="path38"
         style="fill:#ffffff;fill-opacity:1;fill-rule:nonzero;stroke:none"
         d="m 769.289,43.8047 h -16.012 v 5.3789 h 38.411 V 43.8047 H 775.68 V 1.15234 h -6.391 V 43.8047" /><path
         id="path40"
         style="fill:#ffffff;fill-opacity:1;fill-rule:nonzero;stroke:none"
         d="m 769.289,43.8047 h -16.012 v 5.3789 h 38.411 V 43.8047 H 775.68 V 1.15234 h -6.391 V 43.8047" /><path
         id="path42"
         style="fill:#ffffff;fill-opacity:1;fill-rule:nonzero;stroke:none"
         d="m 823.465,27.0508 c 5.988,0 11.098,1.5508 11.098,8.539 0,4.7149 -2.559,8.2149 -8.551,8.2149 H 810.145 V 27.0508 Z m -19.707,22.1445 h 22.597 c 9.016,0 14.61,-4.9219 14.61,-12.5937 0,-5.7774 -2.57,-10.5547 -8.352,-12.1758 V 24.293 c 5.59,-1.0782 6.731,-5.1719 7.203,-9.8907 0.403,-4.71089 0.125,-9.96089 2.817,-13.24996 h -7.117 c -1.825,1.95313 -0.813,7.13672 -1.75,11.83206 -0.684,4.7187 -1.832,8.6914 -8.012,8.6914 H 810.145 V 1.15234 h -6.387 V 49.1953" /><path
         id="path44"
         style="fill:#ffffff;fill-opacity:1;fill-rule:nonzero;stroke:none"
         d="m 823.465,27.0508 c 5.988,0 11.098,1.5508 11.098,8.539 0,4.7149 -2.559,8.2149 -8.551,8.2149 H 810.145 V 27.0508 Z m -19.707,22.1445 h 22.597 c 9.016,0 14.61,-4.9219 14.61,-12.5937 0,-5.7774 -2.57,-10.5547 -8.352,-12.1758 V 24.293 c 5.59,-1.0782 6.731,-5.1719 7.203,-9.8907 0.403,-4.71089 0.125,-9.96089 2.817,-13.24996 h -7.117 c -1.825,1.95313 -0.813,7.13672 -1.75,11.83206 -0.684,4.7187 -1.832,8.6914 -8.012,8.6914 H 810.145 V 1.15234 h -6.387 V 49.1953" /><path
         id="path46"
         style="fill:#ffffff;fill-opacity:1;fill-rule:nonzero;stroke:none"
         d="m 864.793,20.9961 h 16.289 l -8.016,22.4023 h -0.132 z m 4.766,28.1875 h 7.07 L 895.398,1.14844 h -7.07 L 883.09,15.6133 H 862.77 L 857.391,1.14844 h -6.594 l 18.762,48.03516" /><path
         id="path48"
         style="fill:#ffffff;fill-opacity:1;fill-rule:nonzero;stroke:none"
         d="m 864.793,20.9961 h 16.289 l -8.016,22.4023 h -0.132 z m 4.766,28.1875 h 7.07 L 895.398,1.14844 h -7.07 L 883.09,15.6133 H 862.77 L 857.391,1.14844 h -6.594 l 18.762,48.03516" /><path
         id="path50"
         style="fill:#ffffff;fill-opacity:1;fill-rule:nonzero;stroke:none"
         d="m 907.047,49.1836 h 6.391 V 1.15625 h -6.391 V 49.1836" /><path
         id="path52"
         style="fill:#ffffff;fill-opacity:1;fill-rule:nonzero;stroke:none"
         d="m 907.055,49.1875 h 6.39 V 1.15625 h -6.39 V 49.1875" /><path
         id="path54"
         style="fill:#ffffff;fill-opacity:1;fill-rule:nonzero;stroke:none"
         d="m 930.875,49.1836 h 6.793 l 25.305,-38.957 h 0.125 v 38.957 h 6.054 V 1.15625 H 962.16 L 937.066,39.707 h -0.14 V 1.15625 h -6.051 V 49.1836" /><path
         id="path56"
         style="fill:#ffffff;fill-opacity:1;fill-rule:nonzero;stroke:none"
         d="m 930.875,49.1836 h 6.793 l 25.305,-38.957 h 0.125 v 38.957 h 6.054 V 1.15625 H 962.16 L 937.066,39.707 h -0.14 V 1.15625 h -6.051 V 49.1836" /><path
         id="path58"
         style="fill:#ffffff;fill-opacity:1;fill-rule:nonzero;stroke:none"
         d="m 986.523,49.1836 h 6.399 V 1.15625 h -6.399 V 49.1836" /><path
         id="path60"
         style="fill:#ffffff;fill-opacity:1;fill-rule:nonzero;stroke:none"
         d="m 986.535,49.1875 h 6.387 V 1.15625 h -6.387 V 49.1875" /><path
         id="path62"
         style="fill:#ffffff;fill-opacity:1;fill-rule:nonzero;stroke:none"
         d="m 1010.35,49.1836 h 6.8 l 25.29,-38.957 h 0.14 v 38.957 h 6.05 V 1.15625 h -7 L 1016.54,39.707 h -0.13 V 1.15625 h -6.06 V 49.1836" /><path
         id="path64"
         style="fill:#ffffff;fill-opacity:1;fill-rule:nonzero;stroke:none"
         d="m 1010.35,49.1836 h 6.8 l 25.29,-38.957 h 0.14 v 38.957 h 6.05 V 1.15625 h -7 L 1016.54,39.707 h -0.13 V 1.15625 h -6.06 V 49.1836" /><path
         id="path66"
         style="fill:#ffffff;fill-opacity:1;fill-rule:nonzero;stroke:none"
         d="M 1101.67,7.14063 C 1097.97,2.08984 1091.91,0 1086.26,0 c -14.33,0 -22.87,11.7188 -22.87,24.2266 0,13.9922 7.67,26.1054 22.87,26.1054 10.49,0 18.85,-4.7226 20.65,-15.9414 h -6.39 c -1.27,7.2578 -7.13,10.5586 -14.26,10.5586 -11.64,0 -16.48,-10.1015 -16.48,-20.3789 0,-10.0312 5.78,-19.17967 16.48,-19.17967 9.89,0 15.81,6.92967 15.41,15.66797 h -15.34 v 5.3906 h 21.05 V 1.15234 h -4.03 l -1.68,5.98829" /><path
         id="path68"
         style="fill:#ffffff;fill-opacity:1;fill-rule:nonzero;stroke:none"
         d="M 1101.67,7.14063 C 1097.97,2.08984 1091.91,0 1086.26,0 c -14.33,0 -22.87,11.7188 -22.87,24.2266 0,13.9922 7.67,26.1054 22.87,26.1054 10.49,0 18.85,-4.7226 20.65,-15.9414 h -6.39 c -1.27,7.2578 -7.13,10.5586 -14.26,10.5586 -11.64,0 -16.48,-10.1015 -16.48,-20.3789 0,-10.0312 5.78,-19.17967 16.48,-19.17967 9.89,0 15.81,6.92967 15.41,15.66797 h -15.34 v 5.3906 h 21.05 V 1.15234 h -4.03 l -1.68,5.98829" /><path
         id="path70"
         style="fill:#ffffff;fill-opacity:1;fill-rule:nonzero;stroke:none"
         d="m 1151.34,35.1289 c -0.74,6.8594 -5.32,9.8281 -11.91,9.8281 -5.39,0 -10.78,-1.9609 -10.78,-8.2109 0,-5.9258 7.69,-6.8086 15.41,-8.5469 7.68,-1.7578 15.35,-4.4375 15.35,-13.8633 0,-10.23043 -10.02,-14.3241812 -18.77,-14.3241812 -10.77,0 -19.85,5.2382812 -19.85,16.9452812 h 6.06 c 0,-8.07028 6.73,-11.57028 13.98,-11.57028 5.79,0 12.19,1.80859 12.19,8.73828 0,6.5938 -7.68,7.7539 -15.34,9.4336 -7.68,1.6719 -15.41,3.8867 -15.41,12.7109 0,9.7618 8.68,14.0586 17.43,14.0586 9.81,0 17.28,-4.6406 17.68,-15.1992 h -6.04" /><path
         id="path72"
         style="fill:#ffffff;fill-opacity:1;fill-rule:nonzero;stroke:none"
         d="m 1151.34,35.1289 c -0.74,6.8594 -5.32,9.8281 -11.91,9.8281 -5.39,0 -10.78,-1.9609 -10.78,-8.2109 0,-5.9258 7.69,-6.8086 15.41,-8.5469 7.68,-1.7578 15.35,-4.4375 15.35,-13.8633 0,-10.23043 -10.02,-14.3241812 -18.77,-14.3241812 -10.77,0 -19.85,5.2382812 -19.85,16.9452812 h 6.06 c 0,-8.07028 6.73,-11.57028 13.98,-11.57028 5.79,0 12.19,1.80859 12.19,8.73828 0,6.5938 -7.68,7.7539 -15.34,9.4336 -7.68,1.6719 -15.41,3.8867 -15.41,12.7109 0,9.7618 8.68,14.0586 17.43,14.0586 9.81,0 17.28,-4.6406 17.68,-15.1992 h -6.04" /><path
         id="path74"
         style="fill:#ffffff;fill-opacity:1;fill-rule:nonzero;stroke:none"
         d="M 1193.67,20.7969 V 1.14844 h -6.39 V 20.7969 l -18.57,28.3906 h 7.6 l 14.4,-22.8789 14.06,22.8789 h 7.27 l -18.37,-28.3906" /><path
         id="path76"
         style="fill:#ffffff;fill-opacity:1;fill-rule:nonzero;stroke:none"
         d="M 1193.67,20.7969 V 1.14844 h -6.39 V 20.7969 l -18.57,28.3906 h 7.6 l 14.4,-22.8789 14.06,22.8789 h 7.27 l -18.37,-28.3906" /><path
         id="path78"
         style="fill:#ffffff;fill-opacity:1;fill-rule:nonzero;stroke:none"
         d="m 1251.95,35.1289 c -0.76,6.8594 -5.33,9.8281 -11.91,9.8281 -5.38,0 -10.77,-1.9609 -10.77,-8.2109 0,-5.9258 7.68,-6.8086 15.41,-8.5469 7.67,-1.7578 15.34,-4.4375 15.34,-13.8633 0,-10.23043 -10.02,-14.3241812 -18.77,-14.3241812 -10.76,0 -19.84,5.2382812 -19.84,16.9452812 h 6.04 c 0,-8.07028 6.74,-11.57028 14,-11.57028 5.79,0 12.17,1.80859 12.17,8.73828 0,6.5938 -7.66,7.7539 -15.34,9.4336 -7.66,1.6719 -15.41,3.8867 -15.41,12.7109 0,9.7618 8.68,14.0586 17.43,14.0586 9.83,0 17.3,-4.6406 17.7,-15.1992 h -6.05" /><path
         id="path80"
         style="fill:#ffffff;fill-opacity:1;fill-rule:nonzero;stroke:none"
         d="m 1253.62,14.125 c 0,6.5938 -7.66,7.7539 -15.34,9.4336 -7.66,1.6719 -15.41,3.8867 -15.41,12.7109 0,9.7618 8.68,14.0586 17.43,14.0586 9.83,0 17.3,-4.6406 17.7,-15.1992 h -6.05 c -0.76,6.8594 -5.33,9.8281 -11.91,9.8281 -5.38,0 -10.77,-1.9609 -10.77,-8.2109 0,-5.9258 7.68,-6.8086 15.41,-8.5469 7.67,-1.7578 15.34,-4.4375 15.34,-13.8633" /><path
         id="path82"
         style="fill:#ffffff;fill-opacity:1;fill-rule:nonzero;stroke:none"
         d="m 1285.33,43.8047 h -16 v 5.3789 h 38.41 v -5.3789 h -16.02 V 1.15234 h -6.39 V 43.8047" /><path
         id="path84"
         style="fill:#ffffff;fill-opacity:1;fill-rule:nonzero;stroke:none"
         d="m 1285.33,43.8047 h -16 v 5.3789 h 38.41 v -5.3789 h -16.02 V 1.15234 h -6.39 V 43.8047" /><path
         id="path86"
         style="fill:#ffffff;fill-opacity:1;fill-rule:nonzero;stroke:none"
         d="m 1319.8,49.1836 h 33.16 v -5.3789 h -26.78 V 28.5234 h 24.96 v -5.3789 h -24.96 V 6.53125 h 26.99 v -5.375 H 1319.8 V 49.1836" /><path
         id="path88"
         style="fill:#ffffff;fill-opacity:1;fill-rule:nonzero;stroke:none"
         d="m 1319.8,49.1836 h 33.16 v -5.3789 h -26.78 V 28.5234 h 24.96 v -5.3789 h -24.96 V 6.53125 h 26.99 v -5.375 H 1319.8 V 49.1836" /><path
         id="path90"
         style="fill:#ffffff;fill-opacity:1;fill-rule:nonzero;stroke:none"
         d="m 1367.71,49.1836 h 8.75 l 15.13,-40.3711 15.21,40.3711 h 8.74 V 1.15625 h -6.05 V 41.1133 h -0.14 l -15,-39.95705 h -5.45 l -15,39.95705 h -0.14 V 1.15625 h -6.05 V 49.1836" /><path
         id="path92"
         style="fill:#ffffff;fill-opacity:1;fill-rule:nonzero;stroke:none"
         d="m 1367.71,49.1836 h 8.75 l 15.13,-40.3711 15.21,40.3711 h 8.74 V 1.15625 h -6.05 V 41.1133 h -0.14 l -15,-39.95705 h -5.45 l -15,39.95705 h -0.14 V 1.15625 h -6.05 V 49.1836" /><path
         id="path94"
         style="fill:#ffffff;fill-opacity:1;fill-rule:nonzero;stroke:none"
         d="m 1460.71,35.1289 c -0.75,6.8594 -5.32,9.8281 -11.91,9.8281 -5.38,0 -10.77,-1.9609 -10.77,-8.2109 0,-5.9258 7.68,-6.8086 15.41,-8.5469 7.68,-1.7578 15.34,-4.4375 15.34,-13.8633 0,-10.23043 -10.02,-14.3241812 -18.77,-14.3241812 -10.76,0 -19.85,5.2382812 -19.85,16.9452812 h 6.06 c 0,-8.07028 6.73,-11.57028 13.99,-11.57028 5.79,0 12.18,1.80859 12.18,8.73828 0,6.5938 -7.67,7.7539 -15.34,9.4336 -7.67,1.6719 -15.41,3.8867 -15.41,12.7109 0,9.7618 8.68,14.0586 17.43,14.0586 9.82,0 17.29,-4.6406 17.69,-15.1992 h -6.05" /><path
         id="path96"
         style="fill:#ffffff;fill-opacity:1;fill-rule:nonzero;stroke:none"
         d="m 1460.71,35.1289 c -0.75,6.8594 -5.32,9.8281 -11.91,9.8281 -5.38,0 -10.77,-1.9609 -10.77,-8.2109 0,-5.9258 7.68,-6.8086 15.41,-8.5469 7.68,-1.7578 15.34,-4.4375 15.34,-13.8633 0,-10.23043 -10.02,-14.3241812 -18.77,-14.3241812 -10.76,0 -19.85,5.2382812 -19.85,16.9452812 h 6.06 c 0,-8.07028 6.73,-11.57028 13.99,-11.57028 5.79,0 12.18,1.80859 12.18,8.73828 0,6.5938 -7.67,7.7539 -15.34,9.4336 -7.67,1.6719 -15.41,3.8867 -15.41,12.7109 0,9.7618 8.68,14.0586 17.43,14.0586 9.82,0 17.29,-4.6406 17.69,-15.1992 h -6.05" /><path
         id="path98"
         style="fill:#ffffff;fill-opacity:1;fill-rule:nonzero;stroke:none"
         d="m 0,194.996 h 342.52 v 13.1289 H 0 Z" /><path
         id="path100"
         style="fill:#ffffff;fill-opacity:1;fill-rule:nonzero;stroke:none"
         d="m 0,194.984 h 342.52 v 13.1406 H 0 Z" /><path
         id="path102"
         style="fill:#ffffff;fill-opacity:1;fill-rule:nonzero;stroke:none"
         d="m 0,231.816 h 342.52 v 7.23438 H 0 Z" /><path
         id="path104"
         style="fill:#ffffff;fill-opacity:1;fill-rule:nonzero;stroke:none"
         d="m 0,231.813 h 342.52 v 7.23438 H 0 Z" /><path
         id="path106"
         style="fill:#ffffff;fill-opacity:1;fill-rule:nonzero;stroke:none"
         d="m 0,154.746 h 342.52 v 16.5391 H 0 Z" /><path
         id="path108"
         style="fill:#ffffff;fill-opacity:1;fill-rule:nonzero;stroke:none"
         d="m 0,154.742 h 342.52 v 16.5352 H 0 Z" /><path
         id="path110"
         style="fill:#ffffff;fill-opacity:1;fill-rule:nonzero;stroke:none"
         d="m 0,109.586 h 342.52 v 21.4609 H 0 Z" /><path
         id="path112"
         style="fill:#ffffff;fill-opacity:1;fill-rule:nonzero;stroke:none"
         d="m 0,109.586 h 342.52 v 21.4609 H 0 Z" /><path
         id="path114"
         style="fill:#ffffff;fill-opacity:1;fill-rule:nonzero;stroke:none"
         d="m 0,58.5078 h 342.52 v 27.375 H 0 Z" /><path
         id="path116"
         style="fill:#ffffff;fill-opacity:1;fill-rule:nonzero;stroke:none"
         d="M 0,58.4961 H 342.52 V 85.8906 H 0 Z" /><path
         id="path118"
         style="fill:#ffffff;fill-opacity:1;fill-rule:nonzero;stroke:none"
         d="m 0,1.03516 h 342.52 v 33.7695 H 0 Z" /><path
         id="path120"
         style="fill:#ffffff;fill-opacity:1;fill-rule:nonzero;stroke:none"
         d="m 0,1.03906 h 342.52 v 33.7695 H 0 Z" /></g></g></svg>